<?xml version="1.0" encoding="utf-8"?>
<svg width="64" height="64" version="1.1" xmlns="http://www.w3.org/2000/svg">
  <defs>
    <filter id="filter8" x="-.012" y="-.012" width="1.024" height="1.024" color-interpolation-filters="sRGB">
      <feGaussianBlur stdDeviation="0.074081873"/>
    </filter>
    <linearGradient id="linearGradient7" x1="2.5981" x2="10.583" y1="2.8356" y2="11.312" gradientUnits="userSpaceOnUse" href="#linearGradient6"/>
    <linearGradient id="linearGradient6">
      <stop stop-color="#ffffff" offset="0"/>
      <stop stop-color="#ffffff" stop-opacity="0" offset="1"/>
    </linearGradient>
    <linearGradient id="linearGradient8" x1="15.081" x2="12.7" y1="14.816" y2="12.171" gradientUnits="userSpaceOnUse" href="#linearGradient6"/>
    <linearGradient id="linearGradient3" x1="8.4665" x2="8.4665" y1="1.0583" y2="15.875" gradientTransform="matrix(3.7796, 0, 0, 3.7796, -0.000145, -0.000283)" gradientUnits="userSpaceOnUse">
      <stop stop-color="#323131" offset="0"/>
      <stop stop-color="#141414" offset="1"/>
    </linearGradient>
  </defs>
  <g>
    <path d="M 20.26 4.001 C 14.478 4.001 10.517 5.725 7.939 8.535 C 5.374 11.332 4 15.339 4 19.876 L 4 44.124 C 4 48.662 5.373 52.67 7.939 55.465 C 10.517 58.276 14.478 60 20.26 60 L 43.809 60 C 49.591 60 53.551 58.276 56.13 55.465 C 58.695 52.669 60 49.03 60 44.124 L 60 20.787 C 60 14.852 58.695 11.331 56.13 8.535 C 53.551 5.725 49.591 4.001 43.809 4.001 L 25.494 4.001 L 20.26 4.001 Z" fill="url(#linearGradient3)" stroke-width="3.7796"/>
    <g transform="matrix(3.7796, 0, 0, 3.7796, 0.000051, 0.000349)" filter="url(#filter8)" opacity=".35">
      <path d="m5.3603 1.0583c-1.5298 0-2.5775 0.45637-3.2597 1.1999-0.67868 0.73981-1.0423 1.8002-1.0423 3.0008v6.415c0 1.2006 0.36361 2.2609 1.0423 3.0008 0.68219 0.74355 1.7299 1.1999 3.2597 1.1999h6.2305c1.5298 0 2.5775-0.45637 3.2597-1.1999 0.67868-0.73981 1.0242-1.7027 1.0242-3.0008v-6.1742c0-1.5703-0.34552-2.5018-1.0242-3.2416-0.68219-0.74355-1.7299-1.1999-3.2597-1.1999h-4.8456zm-0.00103 0.26406h6.2326c1.4772 0 2.437 0.43133 3.0644 1.1152 0.63411 0.69126 0.95341 1.5307 0.95341 3.0623v6.1742c0 1.2512-0.32181 2.1335-0.95341 2.822-0.6274 0.68381-1.5871 1.1136-3.0644 1.1136h-6.2326c-1.4772 0-2.437-0.42978-3.0644-1.1136-0.62537-0.68172-0.97253-1.6747-0.97253-2.822v-6.4145c0-1.1472 0.34717-2.1403 0.97253-2.822 0.6274-0.68381 1.5871-1.1152 3.0644-1.1152z" fill="url(#linearGradient7)"/>
      <path d="m5.3603 1.0583c-1.5298 0-2.5775 0.45637-3.2597 1.1999-0.67868 0.73981-1.0423 1.8002-1.0423 3.0008v6.415c0 1.2006 0.36361 2.2609 1.0423 3.0008 0.68219 0.74355 1.7299 1.1999 3.2597 1.1999h6.2305c1.5298 0 2.5775-0.45637 3.2597-1.1999 0.67868-0.73981 1.0242-1.7027 1.0242-3.0008v-6.1742c0-1.5703-0.34552-2.5018-1.0242-3.2416-0.68219-0.74355-1.7299-1.1999-3.2597-1.1999h-4.8456zm-0.00103 0.26406h6.2326c1.4772 0 2.437 0.43133 3.0644 1.1152 0.63411 0.69126 0.95341 1.5307 0.95341 3.0623v6.1742c0 1.2512-0.32181 2.1335-0.95341 2.822-0.6274 0.68381-1.5871 1.1136-3.0644 1.1136h-6.2326c-1.4772 0-2.437-0.42978-3.0644-1.1136-0.62537-0.68172-0.97253-1.6747-0.97253-2.822v-6.4145c0-1.1472 0.34717-2.1403 0.97253-2.822 0.6274-0.68381 1.5871-1.1152 3.0644-1.1152z" fill="url(#linearGradient8)" stroke-width="1.0001"/>
    </g>
  </g>
  <linearGradient id="a" gradientUnits="userSpaceOnUse" x1="8.494" x2="66" y1="74" y2="74" gradientTransform="matrix(1, 0, 0, 1, -5.710346, -39.04662)">
    <stop offset="0" stop-color="#1a5fb4"/>
    <stop offset="0.085" stop-color="#62a0ea"/>
    <stop offset="0.199" stop-color="#1a5fb4"/>
    <stop offset="1" stop-color="#1a5fb4"/>
  </linearGradient>
  <linearGradient id="b" gradientTransform="matrix(-1, 0, 0, 1, 124.163649, -211.046623)" gradientUnits="userSpaceOnUse" x1="66" x2="44" y1="234" y2="234">
    <stop offset="0" stop-color="#fff"/>
    <stop offset="1" stop-color="#648cf9" stop-opacity="0"/>
  </linearGradient>
  <g transform="matrix(0.358731, 0, 0, 0.358731, 11.000641, 19.820339)">
    <path d="M 10.786 -9.047 C 6.363 -9.058 2.775 -5.469 2.786 -1.047 L 2.786 70.953 C 2.786 75.387 6.352 78.953 10.786 78.953 L 98.29 78.953 L 98.29 -9.047 L 10.786 -9.047 Z M 10.786 -9.047" fill="url(#a)" style="stroke-width: 1;"/>
    <path d="M 10.786 -11.047 C 6.363 -11.058 2.775 -7.469 2.786 -3.047 L 2.786 68.953 C 2.786 73.387 6.352 76.953 10.786 76.953 L 60.29 76.953 L 60.29 -11.047 L 10.786 -11.047 Z M 10.786 -11.047" fill="#3584e4" style="stroke-width: 1;"/>
    <path d="M 21.29 36.953 L 21.29 41.953 L 26.29 41.953 M 25.29 37.953 L 25.29 45.953 M 30.29 36.953 L 33.29 36.953 L 33.29 40.953 L 30.29 40.953 L 30.29 36.953 Z M 28.29 40.953 L 34.29 40.953 L 34.29 44.953 L 28.29 44.953 L 28.29 40.953 Z M 38.29 36.953 L 42.29 36.953 L 42.29 40.953 L 38.29 40.953 L 38.29 44.953 L 43.29 44.953 M 49.29 44.953 L 51.29 44.953 L 51.29 36.953 L 46.29 36.953 L 46.29 40.953 L 51.29 40.953" style="fill:none;stroke:#fff;stroke-width:2"/>
    <path d="M 14.29 58.953 L 46.29 58.953 L 46.29 66.953 L 14.29 66.953 L 14.29 58.953 Z M 14.29 50.953 L 34.29 50.953 L 34.29 54.953 L 14.29 54.953 L 14.29 50.953 Z M 14.29 50.953" fill="#99c1f1" style="stroke-width: 1;"/>
    <path d="M 58.54 -11.047 L 58.54 76.953 L 98.29 76.953 L 98.29 64.953 L 114.29 64.953 L 114.29 0.953 L 98.29 0.953 L 98.29 -11.047 L 58.54 -11.047 Z M 58.54 -11.047" fill="#3584e4" style="stroke-width: 1;"/>
    <path d="M 66.29 32.953 L 82.29 32.953 L 82.29 48.953 L 66.29 48.953 L 66.29 32.953 Z M 66.29 32.953" fill="#fff" style="stroke-width: 1;"/>
    <path d="M 82.29 32.953 L 98.29 32.953 L 98.29 48.953 L 82.29 48.953 L 82.29 32.953 Z M 82.29 32.953" fill="#fff" style="opacity: 0.8; stroke-width: 1;"/>
    <path d="M 66.29 48.953 L 82.29 48.953 L 82.29 64.953 L 66.29 64.953 L 66.29 48.953 Z M 66.29 48.953" fill="#62a0ea" style="stroke-width: 1;"/>
    <path d="M 92.165 -11.047 L 58.165 -11.047 L 58.165 76.953 L 92.165 76.953 L 92.165 -11.047 Z M 92.165 -11.047" fill="url(#b)" style="stroke-width: 1;"/>
    <path d="M 54.29 76.953 L 54.165 -11.047 L 62.165 -11.047 L 62.29 76.953 L 54.29 76.953 Z" fill="#fff" style="fill: rgb(107, 249, 244); fill-opacity: 1; stroke-width: 1;"/>
    <path d="M 56.29 76.953 L 56.165 -11.047 L 60.165 -11.047 L 60.29 76.953 L 56.29 76.953 Z" fill="#fff" style="stroke-width: 1;"/>
    <path d="M 82.29 48.953 L 98.29 48.953 L 98.29 64.953 L 82.29 64.953 L 82.29 48.953 Z M 82.29 48.953" fill="#99c1f1" style="stroke-width: 1;"/>
    <path d="M 98.29 64.953 L 114.29 64.953 L 114.29 66.953 L 98.29 66.953 L 98.29 64.953 Z M 98.29 64.953" fill="#1a5fb4" style="stroke-width: 1;"/>
    <path d="M 25.067 -0.41 L 33.653 8.176 C 35.188 9.71 35.188 12.197 33.653 13.73 L 25.067 22.316 C 23.533 23.851 21.046 23.851 19.513 22.316 L 10.927 13.73 C 9.392 12.197 9.392 9.71 10.927 8.176 L 19.513 -0.41 C 21.046 -1.945 23.533 -1.945 25.067 -0.41 Z M 25.067 -0.41" fill="#c64600" style="stroke-width: 1;"/>
    <path d="M 39.067 -0.41 L 47.653 8.176 C 49.188 9.71 49.188 12.197 47.653 13.73 L 39.067 22.316 C 37.533 23.851 35.046 23.851 33.513 22.316 L 24.927 13.73 C 23.392 12.197 23.392 9.71 24.927 8.176 L 33.513 -0.41 C 35.046 -1.945 37.533 -1.945 39.067 -0.41 Z M 39.067 -0.41" fill="#f5c211" style="stroke-width: 1;"/>
    <path d="M 29.29 3.813 L 24.927 8.176 C 23.388 9.708 23.388 12.199 24.927 13.73 L 29.29 18.094 L 33.653 13.73 C 35.191 12.199 35.191 9.708 33.653 8.176 L 29.29 3.813 Z M 29.29 3.813" fill="#ff7800" style="stroke-width: 1;"/>
  </g>
</svg>