<?xml version="1.0" encoding="utf-8"?>
<svg width="64" height="64" version="1.1" xmlns="http://www.w3.org/2000/svg">
  <defs>
    <filter id="filter8" x="-.012" y="-.012" width="1.024" height="1.024" color-interpolation-filters="sRGB">
      <feGaussianBlur stdDeviation="0.074081873"/>
    </filter>
    <linearGradient id="linearGradient7" x1="2.5981" x2="10.583" y1="2.8356" y2="11.312" gradientUnits="userSpaceOnUse" href="#linearGradient6"/>
    <linearGradient id="linearGradient6">
      <stop stop-color="#ffffff" offset="0"/>
      <stop stop-color="#ffffff" stop-opacity="0" offset="1"/>
    </linearGradient>
    <linearGradient id="linearGradient8" x1="15.081" x2="12.7" y1="14.816" y2="12.171" gradientUnits="userSpaceOnUse" href="#linearGradient6"/>
    <linearGradient id="linearGradient3" x1="8.4665" x2="8.4665" y1="1.0583" y2="15.875" gradientTransform="matrix(3.7796, 0, 0, 3.7796, -0.000145, -0.000283)" gradientUnits="userSpaceOnUse">
      <stop stop-color="#323131" offset="0"/>
      <stop stop-color="#141414" offset="1"/>
    </linearGradient>
    <linearGradient id="paint0_linear_0_1" x1="10" y1="0" x2="10" y2="17.5" gradientUnits="userSpaceOnUse" gradientTransform="matrix(1, 0, 0, 1, 99.660364, -61.738755)">
      <stop offset="0.4462" stop-color="#3186FF"/>
      <stop offset="1" stop-color="#949DFF"/>
    </linearGradient>
    <linearGradient id="gradient-1" x1="10" y1="0" x2="10" y2="17.5" gradientUnits="userSpaceOnUse" gradientTransform="matrix(2.05, 0, 0, 2.05, 11.499845, 12.012418)">
      <stop offset="0.4462" stop-color="#3186FF"/>
      <stop offset="1" stop-color="#949DFF"/>
    </linearGradient>
  </defs>
  <g>
    <path d="M 20.26 4.001 C 14.478 4.001 10.517 5.725 7.939 8.535 C 5.374 11.332 4 15.339 4 19.876 L 4 44.124 C 4 48.662 5.373 52.67 7.939 55.465 C 10.517 58.276 14.478 60 20.26 60 L 43.809 60 C 49.591 60 53.551 58.276 56.13 55.465 C 58.695 52.669 60 49.03 60 44.124 L 60 20.787 C 60 14.852 58.695 11.331 56.13 8.535 C 53.551 5.725 49.591 4.001 43.809 4.001 L 25.494 4.001 L 20.26 4.001 Z" fill="url(#linearGradient3)" stroke-width="3.7796"/>
    <g transform="matrix(3.7796, 0, 0, 3.7796, 0.000051, 0.000349)" filter="url(#filter8)" opacity=".35">
      <path d="m5.3603 1.0583c-1.5298 0-2.5775 0.45637-3.2597 1.1999-0.67868 0.73981-1.0423 1.8002-1.0423 3.0008v6.415c0 1.2006 0.36361 2.2609 1.0423 3.0008 0.68219 0.74355 1.7299 1.1999 3.2597 1.1999h6.2305c1.5298 0 2.5775-0.45637 3.2597-1.1999 0.67868-0.73981 1.0242-1.7027 1.0242-3.0008v-6.1742c0-1.5703-0.34552-2.5018-1.0242-3.2416-0.68219-0.74355-1.7299-1.1999-3.2597-1.1999h-4.8456zm-0.00103 0.26406h6.2326c1.4772 0 2.437 0.43133 3.0644 1.1152 0.63411 0.69126 0.95341 1.5307 0.95341 3.0623v6.1742c0 1.2512-0.32181 2.1335-0.95341 2.822-0.6274 0.68381-1.5871 1.1136-3.0644 1.1136h-6.2326c-1.4772 0-2.437-0.42978-3.0644-1.1136-0.62537-0.68172-0.97253-1.6747-0.97253-2.822v-6.4145c0-1.1472 0.34717-2.1403 0.97253-2.822 0.6274-0.68381 1.5871-1.1152 3.0644-1.1152z" fill="url(#linearGradient7)"/>
      <path d="m5.3603 1.0583c-1.5298 0-2.5775 0.45637-3.2597 1.1999-0.67868 0.73981-1.0423 1.8002-1.0423 3.0008v6.415c0 1.2006 0.36361 2.2609 1.0423 3.0008 0.68219 0.74355 1.7299 1.1999 3.2597 1.1999h6.2305c1.5298 0 2.5775-0.45637 3.2597-1.1999 0.67868-0.73981 1.0242-1.7027 1.0242-3.0008v-6.1742c0-1.5703-0.34552-2.5018-1.0242-3.2416-0.68219-0.74355-1.7299-1.1999-3.2597-1.1999h-4.8456zm-0.00103 0.26406h6.2326c1.4772 0 2.437 0.43133 3.0644 1.1152 0.63411 0.69126 0.95341 1.5307 0.95341 3.0623v6.1742c0 1.2512-0.32181 2.1335-0.95341 2.822-0.6274 0.68381-1.5871 1.1136-3.0644 1.1136h-6.2326c-1.4772 0-2.437-0.42978-3.0644-1.1136-0.62537-0.68172-0.97253-1.6747-0.97253-2.822v-6.4145c0-1.1472 0.34717-2.1403 0.97253-2.822 0.6274-0.68381 1.5871-1.1152 3.0644-1.1152z" fill="url(#linearGradient8)" stroke-width="1.0001"/>
    </g>
  </g>
  <path d="M 100.16 -50.489 C 100.16 -55.045 103.854 -58.739 108.41 -58.739 L 110.91 -58.739 C 115.467 -58.739 119.16 -55.045 119.16 -50.489 C 119.16 -45.932 115.467 -42.239 110.91 -42.239 L 108.41 -42.239 C 103.854 -42.239 100.16 -45.932 100.16 -50.489 Z" fill="#BBE2FE" style="stroke-width: 1;"/>
  <path d="M 99.66 -52.989 C 99.66 -57.821 103.578 -61.739 108.41 -61.739 L 110.91 -61.739 C 115.743 -61.739 119.66 -57.821 119.66 -52.989 C 119.66 -48.156 115.743 -44.239 110.91 -44.239 L 108.41 -44.239 C 103.578 -44.239 99.66 -48.156 99.66 -52.989 Z" fill="url(#paint0_linear_0_1)" style="stroke-width: 1;"/>
  <path d="M 105.66 -52.739 L 107.87 -50.328 C 108.163 -50.009 108.664 -50.003 108.964 -50.315 L 114.41 -55.989" stroke="white" stroke-width="1.5" stroke-linecap="round" stroke-linejoin="round" style="stroke-width: 1.5;"/>
  <path d="M 12.525 35.075 C 12.525 25.733 20.098 18.163 29.438 18.163 L 34.563 18.163 C 43.902 18.163 51.475 25.733 51.475 35.075 C 51.475 44.415 43.902 51.988 34.563 51.988 L 29.438 51.988 C 20.098 51.988 12.525 44.415 12.525 35.075 Z" fill="#BBE2FE" style="stroke-width: 2.05;"/>
  <path d="M 11.5 29.95 C 11.5 20.043 19.53 12.013 29.438 12.013 L 34.563 12.013 C 44.468 12.013 52.5 20.043 52.5 29.95 C 52.5 39.856 44.468 47.888 34.563 47.888 L 29.438 47.888 C 19.53 47.888 11.5 39.856 11.5 29.95 Z" fill="url(#gradient-1)" style="stroke-width: 2.05;"/>
  <path d="M 23.8 30.463 L 28.331 35.403 C 28.929 36.059 29.958 36.07 30.573 35.43 L 41.738 23.8" stroke-width="1.5" stroke-linecap="round" stroke-linejoin="round" style="stroke-width: 3.075; fill: none;" stroke="white"/>
</svg>